<svg width="1350" height="900" viewBox="0 0 1350 900" fill="none" xmlns="http://www.w3.org/2000/svg">
<g clip-path="url(#clip0_2:12)">
<path d="M-206.084 58.8931C-206.084 58.8931 11.124 118.382 247.783 56.1893C247.8 56.1848 247.817 56.1803 247.834 56.1758C366.55 24.9826 491.461 8.27244 614.672 23.8325C751.089 41.06 873.547 82.6104 1012.37 55.6774C1120.32 34.735 1209.29 -19.7682 1323.86 7.46133C1446.76 36.67 1552.86 82.8816 1683.04 76.3692C1794.31 70.803 1882.09 30.3594 1991.93 67.0061V559.138H-207.292L-206.084 58.8931Z" fill="url(#paint0_linear_2:12)"/>
<path opacity="0.5" d="M-305.094 71.966C-305.094 71.966 -87.886 132.519 148.773 69.2139C148.79 69.2093 148.807 69.2047 148.824 69.2001C267.54 37.449 392.451 20.4401 515.662 36.2785C652.079 53.814 774.537 96.1075 913.363 68.6928C1021.31 47.3759 1110.28 -8.10206 1224.85 19.6144C1347.75 49.3455 1453.85 96.3836 1584.03 89.7547C1695.3 84.0891 1783.07 42.9221 1892.92 80.2242V581.157H-306.302L-305.094 71.966Z" fill="url(#paint1_linear_2:12)"/>
<path opacity="0.5" d="M-107.074 95.4305C-107.074 95.4305 110.134 151.884 346.793 92.8646C346.81 92.86 346.827 92.8564 346.844 92.8518C465.56 63.2501 590.471 47.3933 713.682 62.1584C850.099 78.5069 972.557 117.937 1111.38 92.3775C1219.33 72.5036 1308.3 20.7813 1422.87 46.6227C1545.77 74.3411 1651.87 118.194 1782.05 112.014C1893.32 106.732 1981.1 68.3525 2090.94 103.128V570.148L-103.345 570.067L-107.074 95.4305Z" fill="url(#paint2_linear_2:12)"/>
</g>
<defs>
<linearGradient id="paint0_linear_2:12" x1="-207.292" y1="279.569" x2="1991.93" y2="279.569" gradientUnits="userSpaceOnUse">
<stop stop-color="#124446"/>
<stop offset="1" stop-color="#124446" stop-opacity="0"/>
</linearGradient>
<linearGradient id="paint1_linear_2:12" x1="-306.302" y1="296.588" x2="1892.92" y2="296.588" gradientUnits="userSpaceOnUse">
<stop stop-color="#124446"/>
<stop offset="1" stop-color="#124446" stop-opacity="0"/>
</linearGradient>
<linearGradient id="paint2_linear_2:12" x1="-107.074" y1="304.845" x2="2090.94" y2="304.845" gradientUnits="userSpaceOnUse">
<stop stop-color="#124446"/>
<stop offset="1" stop-color="#124446" stop-opacity="0"/>
</linearGradient>
<clipPath id="clip0_2:12">
<rect width="1350" height="900" fill="white"/>
</clipPath>
</defs>
</svg>
